PathFileType	4	(X/Y/Z)	c:\Git\powerlifing_model_clean\simulations\HC835B\Session1\HC835B_CUT_0003\marker_experimental.trc
DataRate	CameraRate	NumFrames	NumMarkers	Units	OrigDataRate	OrigDataStartFrame	OrigNumFrames
240.000000	240.000000	4	38	mm	240.000000	70	81
Frame#	Time	RPSI			LPSI			RASI			LASI			RTH1			RTH2			RTH3			RTH4			RSK1			RSK2			RSK3			RSK4			RCAL1			RCAL2			RCAL3			RST			RPT			RTN			RFMB			RSMB			RVMB			RFMH			RSMH			RVMH			RPM			LTH1			LTH2			LTH3			LTH4			LSK1			LSK2			LSK3			LSK4			LCAL1			LCAL2			LCAL3			LFMH			LVMH			
		X1	Y1	Z1	X2	Y2	Z2	X3	Y3	Z3	X4	Y4	Z4	X5	Y5	Z5	X6	Y6	Z6	X7	Y7	Z7	X8	Y8	Z8	X9	Y9	Z9	X10	Y10	Z10	X11	Y11	Z11	X12	Y12	Z12	X13	Y13	Z13	X14	Y14	Z14	X15	Y15	Z15	X16	Y16	Z16	X17	Y17	Z17	X18	Y18	Z18	X19	Y19	Z19	X20	Y20	Z20	X21	Y21	Z21	X22	Y22	Z22	X23	Y23	Z23	X24	Y24	Z24	X25	Y25	Z25	X26	Y26	Z26	X27	Y27	Z27	X28	Y28	Z28	X29	Y29	Z29	X30	Y30	Z30	X31	Y31	Z31	X32	Y32	Z32	X33	Y33	Z33	X34	Y34	Z34	X35	Y35	Z35	X36	Y36	Z36	X37	Y37	Z37	X38	Y38	Z38	

71	0.2916666666666667	-75.20944213867189	1069.302001953125	-919.286315917969	-152.7212829589844	1029.395629882813	-852.6649169921877	-136.9161682128907	968.8399047851565	-1114.42919921875	-311.4186096191407	932.1905517578127	-967.6399536132815	104.7611999511719	799.470886230469	-1039.849487304688	78.23538970947267	756.1826782226564	-1073.080932617188	130.625717163086	719.7561645507814	-1027.627197265625	100.165756225586	676.3563232421876	-1052.51123046875	395.6936340332032	445.2571716308595	-764.1628417968751	394.6835327148439	395.1025390625001	-800.1758422851565	424.7120971679689	397.4127502441407	-746.9877929687501	414.1206970214845	345.3758850097657	-775.1418457031252	464.904266357422	344.3141479492188	-625.4347534179689	441.6228637695314	322.2907714843751	-587.6492919921876	504.4693908691407	331.3967590332032	-599.9025268554689	428.6762695312501	259.4986572265626	-623.4036254882814	527.8449707031251	282.8900451660157	-635.6755371093751	441.0010070800782	218.3858642578126	-664.4237670898439	449.8491210937501	183.2696228027344	-663.3140258789064	492.4069213867189	188.6701812744141	-695.6834716796876	546.0346069335939	233.5162506103516	-629.5474853515626	460.3852539062501	123.5105285644532	-652.5473022460939	506.8050537109376	122.0777130126953	-680.2365112304689	577.4041748046876	157.9718322753907	-644.2740478515626	502.9014282226564	63.73255538940431	-689.9998779296876	-309.6821594238282	673.6444702148439	-1007.912841796875	-351.3580932617188	697.8762207031251	-1045.749633789063	-329.9245605468751	624.2951660156251	-1074.729736328125	-358.5490722656251	654.5387573242189	-1119.802978515625	-177.3679504394532	270.1766967773438	-1298.740600585938	-217.0648345947266	256.4982299804688	-1334.101318359375	-174.3095092773438	228.6259765625001	-1338.12109375	-209.8155517578126	226.6232147216797	-1384.488159179688	-63.14692687988283	119.0218887329102	-1423.097045898438	-77.2602005004883	73.5605926513672	-1431.094116210938	-43.06032943725587	107.6487350463867	-1464.488159179688	-211.3155975341797	182.9052429199219	-1587.784301757813	-241.5616912841797	92.98567199707033	-1531.552978515625	
72	0.2958333333333333	-86.18627166748048	1071.441284179688	-936.1820068359377	-162.9488677978516	1030.510009765625	-869.3746337890627	-146.974594116211	970.7877197265627	-1131.086547851563	-320.9591064453126	933.446228027344	-984.8420410156252	94.85359954833986	800.0564575195315	-1057.911865234375	68.38899993896486	757.3890991210939	-1092.2724609375	120.5096130371094	720.1408691406251	-1046.93359375	90.21272277832033	677.2111206054689	-1072.754272460938	385.2459411621095	452.5483398437501	-780.1580810546877	385.8189392089845	401.1902160644532	-814.4348754882815	415.3546447753907	406.0640869140626	-761.1208496093751	405.9638977050782	352.7824096679688	-787.4143676757815	456.9459228515626	358.1562805175782	-637.4853515625001	433.3293762207032	336.9829711914063	-598.9814453125001	496.1949157714845	346.3304443359376	-611.5858154296876	421.2150878906251	273.1291503906251	-632.6231079101564	519.9773559570314	296.8434143066407	-645.6478271484376	433.6495666503907	230.6714935302735	-672.2373657226564	442.9530029296876	195.7175598144532	-670.1248168945314	485.4786376953126	200.4508819580079	-702.5568237304689	538.7364501953126	247.8525085449219	-637.8718261718751	453.5371093750001	136.28076171875	-657.3930664062501	500.3015747070314	134.570541381836	-685.1665039062501	570.5735473632814	172.1380004882813	-650.3540039062501	497.0242614746095	75.6082229614258	-692.4203491210939	-316.9253845214844	670.1277465820314	-1024.201904296875	-358.1530456542969	693.7457275390626	-1062.8974609375	-336.2203063964844	620.0481567382814	-1090.77880859375	-364.0739440917969	649.8085937500001	-1136.549926757813	-186.8966369628907	267.4594421386719	-1318.916381835938	-226.1942901611329	254.5131225585938	-1353.868896484375	-185.051025390625	226.170150756836	-1358.674072265625	-220.9225158691407	223.1915740966797	-1402.683349609375	-76.31883239746095	116.1837692260742	-1446.232299804688	-90.77537536621095	70.7749710083008	-1454.182373046875	-56.98542404174806	104.9824142456055	-1488.038818359375	-226.9310302734376	181.3095703125	-1608.312133789063	-256.6356201171876	91.42272949218751	-1551.781127929688	
73	0.3	-97.1701583862305	1073.45556640625	-952.872741699219	-173.2106018066407	1031.406982421875	-886.0128173828127	-157.2527160644532	972.827087402344	-1147.558349609375	-329.5827331542969	933.404235839844	-1002.17333984375	84.62400817871095	799.990417480469	-1076.24755859375	57.97849273681642	757.9734497070314	-1111.375244140625	110.029167175293	719.7578735351564	-1066.671142578125	79.67852783203126	677.4380493164064	-1093.372436523438	374.7154846191407	460.496307373047	-796.5515136718752	376.6423950195313	407.7954406738282	-828.874938964844	405.4177246093751	415.2879333496095	-775.414245605469	397.6038818359376	360.8918457031251	-800.0277099609377	447.8361206054689	372.2368164062501	-649.8556518554689	424.6042480468751	352.2503051757813	-610.6285400390626	487.3306884765626	361.5783081054688	-623.7817382812501	413.2064514160157	287.2868347167969	-642.3980102539064	511.6132202148439	311.1984863281251	-656.0557250976564	425.8668823242189	243.5602111816407	-680.8104248046876	435.5095214843751	208.8426818847657	-677.4921875000001	478.1096191406251	212.9558410644532	-710.1019287109376	530.8303833007814	262.6855163574219	-646.6875610351564	446.493377685547	150.0671691894532	-663.1503295898439	493.4164123535157	147.6455230712891	-690.5447998046876	562.8063964843751	186.7432556152344	-656.9198608398439	490.5425720214845	88.59975433349611	-696.1088867187501	-323.9725646972657	666.4309082031251	-1040.435546875	-364.0066223144532	689.7747192382814	-1079.718994140625	-342.2779235839844	615.6196899414064	-1107.02197265625	-369.6770019531251	644.9943237304689	-1153.33544921875	-196.1591186523438	264.8032226562501	-1337.978759765625	-235.9924316406251	252.4703674316407	-1372.538940429688	-195.2686767578126	223.658187866211	-1378.060424804688	-231.6800231933594	221.3728790283204	-1421.492919921875	-88.47891235351564	113.3199234008789	-1467.495849609375	-102.9914779663086	68.09228515625001	-1475.097045898438	-69.80895996093751	102.0195693969727	-1509.583862304688	-241.4559936523438	178.5875091552735	-1627.484741210938	-270.4628295898438	88.91329956054689	-1569.999145507813	
74	0.3041666666666666	-108.3084411621094	1075.21435546875	-969.5434570312502	-183.3779907226563	1032.1181640625	-902.5593872070315	-167.6852722167969	974.8945922851565	-1164.130859375	-339.3408813476563	934.3383789062502	-1018.910827636719	73.90145874023439	799.0750122070315	-1094.76318359375	47.13525009155274	757.9002685546876	-1130.632202148438	99.13246154785159	718.6579589843751	-1086.836181640625	68.65605926513673	676.9482421875001	-1114.290283203125	363.2507629394532	468.4641723632814	-813.2239990234377	367.2651062011719	414.9549560546876	-843.7998657226565	394.8652343750001	424.7480773925782	-790.2126464843752	389.1246337890626	369.7497253417969	-813.4182128906252	437.9400939941407	386.6570129394532	-662.8468627929689	415.6017150878907	367.9572753906251	-622.8985595703126	477.4620971679689	377.1457214355469	-636.2340698242189	404.231903076172	301.6206054687501	-653.1683349609376	502.4661865234376	326.2507629394532	-667.0003662109376	417.3816223144532	257.0875549316407	-690.2850952148439	427.5803222656251	222.7688751220704	-686.3127441406251	470.4448242187501	225.9308624267579	-718.3718872070314	522.2105102539064	278.1503601074219	-656.0751953125001	439.047821044922	164.3222198486328	-669.9218750000001	486.319061279297	161.3899688720703	-695.8742065429689	554.7473144531251	202.2586517333985	-663.9555664062501	483.6572265625001	102.3907241821289	-701.0168457031251	-330.8343811035157	662.3379516601564	-1056.737426757813	-371.3164978027344	684.8146362304689	-1096.844482421875	-348.0684204101563	611.2735595703126	-1123.419067382813	-375.2275695800782	640.2532348632814	-1170.053100585938	-205.0709381103516	262.0770874023438	-1356.065551757813	-245.3124237060547	250.363265991211	-1390.319458007813	-204.9781036376954	221.0893859863282	-1396.132690429688	-241.6766815185547	219.3568725585938	-1439.457397460938	-99.47756195068362	110.2672958374024	-1486.939453125	-114.3141784667969	64.86827087402345	-1494.0556640625	-81.45381164550783	98.55872344970706	-1529.269775390625	-254.9146881103516	174.795654296875	-1645.1767578125	-283.0282592773438	85.52575683593751	-1586.582397460938	
